<svg xmlns="http://www.w3.org/2000/svg" width="24" height="24" viewBox="0 0 24 24"><g><g><path fill="#2b2d33" d="M21.333 18.157l-3.736-1.868-2.962 2.962c2.132 1.103 4.407 1.82 6.698 2.023zm-4.942-4.433a1.333 1.333 0 0 1 1.539-.25l5.333 2.667c.452.226.737.687.737 1.192v5.334c0 .736-.597 1.333-1.333 1.333C11.264 24 0 12.736 0 1.333 0 .597.597 0 1.333 0h5.334c.505 0 .966.285 1.192.737l2.667 5.333a1.333 1.333 0 0 1-.25 1.54l-4.112 4.112a23.937 23.937 0 0 0 6.114 6.114zm-8.68-7.32L5.843 2.666H2.726c.204 2.291.92 4.566 2.023 6.698z"/></g></g></svg>