<svg xmlns="http://www.w3.org/2000/svg" width="172" height="36" viewBox="0 0 172 36"><g><g><g><path d="M36.182 0H0v36h36.182z"/></g><g><path fill="#fe0" d="M35.218 1.07H1.07v33.976h34.148z"/></g><g><path d="M2.892 28.122l4.496 4.473 10.384-10.544L28.584 32.81l4.496-4.474-10.705-10.65 2.034-2.025V11.4l1.285-1.065v3.515l1.605 1.384 4.925-4.899 1.605 1.172c.964-3.409-4.496-11.29-8.992-6.923l-5.245 5.219 1.07 1.278-2.676 2.556-2.462-2.556 1.392-1.172-5.781-5.538C6.853.856 2.357 6.18 2.25 11.507l1.606-1.278 4.817 5.219 1.713-1.385v-3.195l1.07.852v4.154l2.141 2.13z"/></g><g><path d="M160.892 4.793h3.533v3.515h3.318V4.793h3.533v10.012h-3.533v-4.048h-3.318v4.048h-3.533zm-22.48.639c1.07-.533 2.783-.959 4.175-.959 1.606 0 4.068.533 4.068 2.876 0 1.065-.643 1.917-1.499 2.343 1.392.32 2.034 1.385 2.034 2.45 0 .746-.535 3.089-4.603 3.089-.75 0-2.57-.107-4.496-1.172l.963-2.343c1.07.639 1.82.959 3.105.959 1.177 0 1.391-.64 1.391-.959 0-.852-.963-.852-1.498-.852h-1.5V8.627h1.714c.32 0 1.177 0 1.177-.852s-.963-.958-1.391-.958c-.857 0-1.927.32-2.677.852zM127.6 1.065l2.248-.852c.321 1.172 1.285 1.278 1.713 1.278.428 0 1.391-.106 1.713-1.278l2.355.852c-.75 1.704-2.463 2.343-4.068 2.343-1.499 0-3.212-.532-3.961-2.343zm2.034 3.728v5.432l3.533-5.432h3.425V14.91h-3.532V9.373l-3.533 5.538H126.1V4.793zm-27.19 2.237c-1.178 0-2.463.852-2.463 2.769.108 2.023 1.285 2.876 2.463 2.876zm3.104 5.645c1.177 0 2.462-.853 2.462-2.77s-1.284-2.875-2.462-2.875zm-3.319 6.603v-4.26c-2.14 0-5.566-.852-5.566-5.22 0-4.366 3.533-5.218 5.567-5.218V.213h3.532V4.58c2.141 0 5.567.852 5.567 5.219s-3.533 5.219-5.567 5.219v4.26zM86.493 7.03c-1.177 0-2.462.852-2.462 2.769 0 2.023 1.178 2.876 2.462 2.876zm3.105 5.645c1.177 0 2.462-.853 2.462-2.77-.107-1.917-1.285-2.875-2.462-2.875zm-3.319 6.603v-4.26c-2.14 0-5.566-.852-5.566-5.22 0-4.366 3.425-5.218 5.566-5.218V.213h3.533V4.58c2.14 0 5.566.852 5.566 5.219s-3.532 5.219-5.566 5.219v4.26zM69.901 1.065l2.248-.852c.32 1.172 1.284 1.278 1.713 1.278.428 0 1.391-.106 1.712-1.278l2.355.852c-.642 1.704-2.355 2.343-3.96 2.343-1.606 0-3.319-.532-4.068-2.343zm2.034 3.728v5.432l3.532-5.432h3.426V14.91H75.36V9.373l-3.532 5.538h-3.426V4.793zM46.67 3.195v3.409h1.285c1.82 0 1.927-1.066 1.927-1.705 0-.745-.214-1.704-1.927-1.704zm-3.854 11.61V0h5.995c4.068 0 5.246 2.876 5.246 4.9 0 2.023-1.178 4.899-5.139 4.899h-2.14v5.006zm81.036-10.012V14.91h-3.532V13.74c-.643.958-1.82 1.49-2.998 1.49-2.997 0-5.031-2.555-5.031-5.431s2.034-5.326 5.031-5.326c1.178 0 2.355.426 3.105 1.278v-.958zm-5.673 2.77c-1.499 0-2.248 1.064-2.248 2.236 0 1.278.856 2.236 2.248 2.236 1.391 0 2.248-.958 2.248-2.236 0-1.278-.857-2.237-2.248-2.237zm-52.026-2.77V14.91h-3.532V13.74c-.643.958-1.82 1.49-2.998 1.49-2.997 0-5.031-2.555-5.031-5.431s2.034-5.326 5.031-5.326c1.178 0 2.355.426 3.104 1.278v-.958zm-5.673 2.77c-1.5 0-2.249 1.064-2.249 2.236 0 1.278.857 2.236 2.249 2.236 1.391 0 2.247-.958 2.247-2.236 0-1.278-.856-2.237-2.248-2.237zm98.698 3.088h-7.493c0 1.491.749 2.237 2.248 2.237.749 0 1.285-.213 1.713-.959h3.425c-.535 2.45-2.783 3.515-5.138 3.515-3.319 0-5.781-1.917-5.781-5.326 0-3.408 2.248-5.432 5.567-5.432 3.425-.106 5.459 2.13 5.459 5.539zm-3.425-2.13c-.214-.959-1.071-1.598-2.034-1.598-.964 0-1.82.533-2.034 1.598zM47.42 32.91h.642c.643 0 1.178 0 1.606-.106.428-.107.75-.213 1.07-.426.322-.213.536-.64.643-1.172.107-.532.107-.852-.107-1.065-.214-.213-.535-.426-.857-.426-.32 0-.856-.107-1.605-.107h-.643zm8.457-11.822l-.75 3.301h-5.994l-.428 2.024h2.248c1.177 0 2.034.213 2.783.533.75.32 1.177.958 1.499 1.597.214.746.32 1.598 0 2.663-.214.959-.643 1.917-1.285 2.556-.642.746-1.392 1.278-2.248 1.598a8.83 8.83 0 0 1-2.997.532H42.71l3.211-15.017h9.956zm9.42 4.58l-2.675 4.793h3.211zm-4.388 7.775L59.303 36h-4.175l8.992-15.018h4.282L70.864 36H66.69l-.428-2.556zm23.229-6.604l1.177-5.751h3.961L86.065 36h-3.96l1.39-6.071h-5.673L76.538 36h-3.961l3.211-14.911h3.854l-1.178 5.751zm16.807-5.751h4.925l-7.494 7.03L103.194 36h-5.139l-3.64-6.497L93.025 36h-3.961l3.212-14.911h3.96l-1.391 6.177h.107z"/></g></g></g></svg>