<svg xmlns="http://www.w3.org/2000/svg" width="87" height="28" viewBox="0 0 87 28"><defs><linearGradient id="xjkua" x1="4.87" x2="86.22" y1="14.52" y2="13.98" gradientUnits="userSpaceOnUse"><stop offset="0" stop-color="#262860"/><stop offset="1" stop-color="#3d429b"/></linearGradient><linearGradient id="xjkub" x1="4.87" x2="86.23" y1="14.31" y2="13.77" gradientUnits="userSpaceOnUse"><stop offset="0" stop-color="#262860"/><stop offset="1" stop-color="#3d429b"/></linearGradient><linearGradient id="xjkuc" x1="4.87" x2="86.22" y1="14.06" y2="13.53" gradientUnits="userSpaceOnUse"><stop offset="0" stop-color="#262860"/><stop offset="1" stop-color="#3d429b"/></linearGradient><linearGradient id="xjkud" x1="4.87" x2="86.23" y1="14.25" y2="13.71" gradientUnits="userSpaceOnUse"><stop offset="0" stop-color="#262860"/><stop offset="1" stop-color="#3d429b"/></linearGradient></defs><g><g><g><path fill="url(#xjkua)" d="M86.678 27.551h-6.524c-.24-1.151-.495-2.27-.703-3.406-.08-.464-.24-.655-.752-.64-2.622.032-5.228.032-7.85 0-.4 0-.56.128-.672.496a128.904 128.904 0 0 1-1.152 3.214c-.048.144-.24.336-.367.336-2.351.016-4.718.016-7.148.016.448-1.071.863-2.079 1.28-3.102 3.037-7.26 6.075-14.503 9.13-21.762C72.575 1.136 73.566.48 75.26.48h5.725c.192.88.384 1.759.56 2.622 1.503 7.164 2.99 14.343 4.493 21.507.192.911.415 1.823.623 2.75.016.064.016.128.016.192zm-8.538-9.626c-.688-3.326-1.376-6.62-2.063-9.914-.032 0-.064-.016-.08-.016-1.2 3.294-2.383 6.588-3.598 9.93h5.74z"/></g><g><path fill="url(#xjkub)" d="M58.266 0c.863.16 1.727.288 2.574.496.784.176 1.535.431 2.367.671-.416 1.951-.816 3.854-1.216 5.709-1.087-.32-2.126-.688-3.198-.928-1.47-.32-2.974-.447-4.429-.032-.591.16-1.199.48-1.663.88-.8.687-.815 1.679-.048 2.398.528.496 1.152.912 1.791 1.28 1.423.863 2.926 1.598 4.317 2.526 1.631 1.087 2.83 2.558 3.07 4.573.448 3.55-.863 6.348-3.853 8.33-1.87 1.248-3.998 1.808-6.204 2-3.086.287-6.108-.064-9.066-1.024-.192-.064-.384-.144-.576-.224-.064-.016-.112-.064-.192-.128.416-1.95.831-3.901 1.263-5.916.496.224.976.432 1.455.64 2.303.927 4.685 1.359 7.148.895.64-.128 1.295-.4 1.839-.767 1.183-.784 1.295-2.271.223-3.214-.703-.608-1.55-1.056-2.366-1.551-1.263-.768-2.59-1.423-3.79-2.271-1.519-1.103-2.622-2.558-2.846-4.51-.32-2.91.768-5.276 3.006-7.115C49.823 1.12 52.126.4 54.588.112c.144-.016.272-.064.4-.096C56.075 0 57.162 0 58.266 0z"/></g><g><path fill="url(#xjkuc)" d="M32.891.493c-.367.88-.72 1.727-1.071 2.559-3.358 8.01-6.716 16.022-10.058 24.033-.16.384-.351.48-.735.48-2.127-.016-4.238-.032-6.364 0-.448 0-.592-.144-.704-.56C12.17 20 10.33 13.014 8.555 6.01c-.32-1.28-.976-2.159-2.207-2.702C4.381 2.444 2.351 1.837.272 1.34.176 1.325.096 1.293 0 1.277.016.461.016.461.784.461h11.128c1.76 0 3.023 1.024 3.358 2.767.944 4.925 1.855 9.866 2.799 14.79.048.208.08.432.144.736.095-.176.16-.288.207-.4A7913.78 7913.78 0 0 0 25.312.877c.128-.32.272-.432.624-.416 2.158.016 4.301.016 6.46.016.16 0 .303.016.495.016z"/></g><g><path fill="url(#xjkud)" d="M30.09 27.565c1.935-9.05 3.854-18.037 5.788-27.055h7.02c-.288 1.375-.576 2.718-.864 4.061-1.599 7.452-3.181 14.887-4.765 22.338-.111.512-.287.688-.831.672-1.919-.032-3.854-.016-5.772-.016h-.576z"/></g></g></g></svg>